ffmpeg started on 2016-11-26 at 08:03:29
Report written to "Output/NVENCh264/results/ffmpeg/old_town_cross_2160p50ll1000k.log"
Command line:
Tools/ffmpeg/ffmpeg -benchmark -y -i Input/y4m/old_town_cross_2160p50.y4m -c:v h264_nvenc -preset ll -b:v 1000k -an Output/NVENCh264/encoded/old_town_cross_2160p50ll1000k.mkv
ffmpeg version N-82227-gdb23fde Copyright (c) 2000-2016 the FFmpeg developers
  built with gcc 5.4.0 (Ubuntu 5.4.0-6ubuntu1~16.04.2) 20160609
  configuration: --prefix=/home/jaroslav/ffmpeg_build --pkg-config-flags=--static --extra-cflags=-I/home/jaroslav/ffmpeg_build/include --extra-ldflags=-L/home/jaroslav/ffmpeg_build/lib --bindir=/home/jaroslav/bin --enable-gpl --enable-libass --enable-libfdk-aac --enable-libfreetype --enable-libmp3lame --enable-libopus --enable-libtheora --enable-libvorbis --enable-libvpx --enable-libx264 --enable-libx265 --enable-nvenc --enable-libmfx --enable-libxvid --enable-libgsm --enable-libopencore-amrnb --enable-version3 --enable-nonfree
  libavutil      55. 35.100 / 55. 35.100
  libavcodec     57. 66.101 / 57. 66.101
  libavformat    57. 57.100 / 57. 57.100
  libavdevice    57.  2.100 / 57.  2.100
  libavfilter     6. 66.100 /  6. 66.100
  libswscale      4.  3.100 /  4.  3.100
  libswresample   2.  4.100 /  2.  4.100
  libpostproc    54.  2.100 / 54.  2.100
Input #0, yuv4mpegpipe, from 'Input/y4m/old_town_cross_2160p50.y4m':
  Duration: 00:00:10.00, start: 0.000000, bitrate: 4976642 kb/s
    Stream #0:0: Video: rawvideo (I420 / 0x30323449), yuv420p(progressive), 3840x2160, SAR 1:1 DAR 16:9, 50 fps, 50 tbr, 50 tbn, 50 tbc
[h264_nvenc @ 0x2d63120] The variable bitrate rate-control requires the 'qmin' and/or 'qmax' option set.
Output #0, matroska, to 'Output/NVENCh264/encoded/old_town_cross_2160p50ll1000k.mkv':
  Metadata:
    encoder         : Lavf57.57.100
    Stream #0:0: Video: h264 (h264_nvenc) (Main) (H264 / 0x34363248), yuv420p, 3840x2160 [SAR 1:1 DAR 16:9], q=-1--1, 1000 kb/s, 50 fps, 1k tbn, 50 tbc
    Metadata:
      encoder         : Lavc57.66.101 h264_nvenc
    Side data:
      cpb: bitrate max/min/avg: 0/0/1000000 buffer size: 2000000 vbv_delay: -1
Stream mapping:
  Stream #0:0 -> #0:0 (rawvideo (native) -> h264 (h264_nvenc))
Press [q] to stop, [?] for help
frame=   20 fps=0.0 q=0.0 size=       0kB time=00:00:00.00 bitrate=N/A speed=   0x    frame=   38 fps= 36 q=47.0 size=       1kB time=00:00:00.14 bitrate=  42.3kbits/s speed=0.135x    frame=   45 fps= 28 q=48.0 size=       1kB time=00:00:00.28 bitrate=  21.2kbits/s speed=0.177x    frame=   52 fps= 24 q=49.0 size=       1kB time=00:00:00.42 bitrate=  14.2kbits/s speed=0.197x    frame=   58 fps= 22 q=49.0 size=       1kB time=00:00:00.54 bitrate=  11.0kbits/s speed=0.203x    frame=   72 fps= 22 q=49.0 size=       1kB time=00:00:00.82 bitrate=   7.3kbits/s speed=0.253x    frame=   90 fps= 24 q=49.0 size=       1kB time=00:00:01.18 bitrate=   5.0kbits/s speed=0.314x    frame=  108 fps= 25 q=49.0 size=       1kB time=00:00:01.54 bitrate=   3.9kbits/s speed=0.36x    frame=  114 fps= 24 q=49.0 size=       1kB time=00:00:01.66 bitrate=   3.6kbits/s speed=0.346x    frame=  124 fps= 23 q=49.0 size=       1kB time=00:00:01.86 bitrate=   3.2kbits/s speed=0.343x    frame=  130 fps= 22 q=49.0 size=       1kB time=00:00:01.98 bitrate=   3.0kbits/s speed=0.333x    frame=  133 fps= 20 q=49.0 size=       1kB time=00:00:02.04 bitrate=   2.9kbits/s speed=0.312x    frame=  138 fps= 20 q=49.0 size=       1kB time=00:00:02.14 bitrate=   2.8kbits/s speed=0.304x    frame=  142 fps= 18 q=49.0 size=       1kB time=00:00:02.22 bitrate=   2.7kbits/s speed=0.282x    frame=  143 fps= 17 q=49.0 size=       1kB time=00:00:02.24 bitrate=   2.7kbits/s speed=0.265x    frame=  145 fps= 16 q=49.0 size=       1kB time=00:00:02.28 bitrate=   2.6kbits/s speed=0.247x    frame=  147 fps= 15 q=49.0 size=       1kB time=00:00:02.32 bitrate=   2.6kbits/s speed=0.233x    frame=  152 fps= 14 q=49.0 size=       1kB time=00:00:02.42 bitrate=   2.5kbits/s speed=0.224x    frame=  170 fps= 15 q=49.0 size=       1kB time=00:00:02.78 bitrate=   2.1kbits/s speed=0.246x    frame=  182 fps= 15 q=49.0 size=       1kB time=00:00:03.02 bitrate=   2.0kbits/s speed=0.252x    frame=  184 fps= 15 q=49.0 size=       1kB time=00:00:03.06 bitrate=   1.9kbits/s speed=0.242x    frame=  190 fps= 14 q=49.0 size=       1kB time=00:00:03.18 bitrate=   1.9kbits/s speed=0.242x    frame=  198 fps= 14 q=49.0 size=       1kB time=00:00:03.34 bitrate=   1.8kbits/s speed=0.244x    frame=  200 fps= 14 q=49.0 size=       1kB time=00:00:03.38 bitrate=   1.8kbits/s speed=0.238x    frame=  205 fps= 14 q=49.0 size=       1kB time=00:00:03.48 bitrate=   1.7kbits/s speed=0.231x    frame=  207 fps= 13 q=49.0 size=       1kB time=00:00:03.52 bitrate=   1.7kbits/s speed=0.222x    frame=  210 fps= 13 q=49.0 size=       1kB time=00:00:03.58 bitrate=   1.7kbits/s speed=0.216x    frame=  216 fps= 13 q=49.0 size=       1kB time=00:00:03.70 bitrate=   1.6kbits/s speed=0.216x    frame=  234 fps= 13 q=49.0 size=       1kB time=00:00:04.06 bitrate=   1.5kbits/s speed=0.23x    frame=  238 fps= 13 q=49.0 size=       1kB time=00:00:04.14 bitrate=   1.4kbits/s speed=0.224x    frame=  245 fps= 13 q=49.0 size=       1kB time=00:00:04.28 bitrate=   1.4kbits/s speed=0.226x    frame=  249 fps= 13 q=49.0 size=       1kB time=00:00:04.36 bitrate=   1.4kbits/s speed=0.22x    frame=  250 fps= 12 q=49.0 size=       1kB time=00:00:04.38 bitrate=   1.4kbits/s speed=0.215x    frame=  254 fps= 12 q=49.0 size=       1kB time=00:00:04.46 bitrate=   1.3kbits/s speed=0.209x    frame=  256 fps= 12 q=49.0 size=       1kB time=00:00:04.50 bitrate=   1.3kbits/s speed=0.205x    frame=  259 fps= 11 q=49.0 size=       1kB time=00:00:04.56 bitrate=   1.3kbits/s speed= 0.2x    frame=  261 fps= 11 q=49.0 size=       1kB time=00:00:04.60 bitrate=   1.3kbits/s speed=0.195x    frame=  262 fps= 11 q=49.0 size=       1kB time=00:00:04.62 bitrate=   1.3kbits/s speed=0.19x    frame=  265 fps= 11 q=49.0 size=       1kB time=00:00:04.68 bitrate=   1.3kbits/s speed=0.186x    frame=  266 fps= 10 q=49.0 size=       1kB time=00:00:04.70 bitrate=   1.3kbits/s speed=0.183x    frame=  271 fps= 10 q=49.0 size=       1kB time=00:00:04.80 bitrate=   1.2kbits/s speed=0.183x    frame=  286 fps=9.9 q=49.0 size=    1131kB time=00:00:05.10 bitrate=1816.9kbits/s speed=0.177x    frame=  290 fps=9.9 q=49.0 size=    1131kB time=00:00:05.18 bitrate=1788.8kbits/s speed=0.177x    frame=  308 fps= 10 q=49.0 size=    1131kB time=00:00:05.54 bitrate=1672.6kbits/s speed=0.186x    frame=  326 fps= 11 q=49.0 size=    1131kB time=00:00:05.90 bitrate=1570.6kbits/s speed=0.195x    frame=  344 fps= 11 q=49.0 size=    1131kB time=00:00:06.26 bitrate=1480.2kbits/s speed=0.203x    frame=  349 fps= 11 q=49.0 size=    1131kB time=00:00:06.36 bitrate=1457.0kbits/s speed=0.203x    frame=  367 fps= 12 q=49.0 size=    1131kB time=00:00:06.72 bitrate=1378.9kbits/s speed=0.211x    frame=  385 fps= 12 q=49.0 size=    1131kB time=00:00:07.08 bitrate=1308.8kbits/s speed=0.219x    frame=  403 fps= 12 q=49.0 size=    1131kB time=00:00:07.44 bitrate=1245.5kbits/s speed=0.226x    frame=  420 fps= 13 q=49.0 size=    1131kB time=00:00:07.78 bitrate=1191.1kbits/s speed=0.233x    frame=  438 fps= 13 q=49.0 size=    1131kB time=00:00:08.14 bitrate=1138.4kbits/s speed=0.24x    frame=  456 fps= 13 q=49.0 size=    1131kB time=00:00:08.50 bitrate=1090.2kbits/s speed=0.247x    frame=  474 fps= 14 q=49.0 size=    1131kB time=00:00:08.86 bitrate=1045.9kbits/s speed=0.254x    frame=  492 fps= 14 q=49.0 size=    1131kB time=00:00:09.22 bitrate=1005.1kbits/s speed=0.26x    frame=  500 fps= 14 q=49.0 Lsize=    2549kB time=00:00:09.98 bitrate=2092.2kbits/s speed=0.279x    
video:2545kB audio:0kB subtitle:0kB other streams:0kB global headers:0kB muxing overhead: 0.166234%
bench: utime=1.196s
bench: maxrss=1420968kB
